<svg width="16" height="16" viewBox="-1.5 0 20 20" fill="currentColor" xmlns="http://www.w3.org/2000/svg"><path d="M11.57 3.193c.73-.845 1.221-2.022 1.087-3.193-1.05.04-2.322.671-3.075 1.515-.677.749-1.267 1.946-1.108 3.094 1.172.087 2.368-.57 3.097-1.416m2.628 7.432c.03 3.027 2.77 4.034 2.801 4.047-.022.07-.438 1.435-1.444 2.845-.87 1.218-1.774 2.43-3.196 2.457-1.398.025-1.848-.794-3.447-.794-1.597 0-2.097.768-3.42.819-1.373.049-2.42-1.318-3.296-2.532C.403 14.984-.967 10.45.873 7.39c.915-1.52 2.548-2.482 4.321-2.506 1.348-.025 2.621.869 3.445.869.825 0 2.372-1.075 3.998-.917.68.027 2.591.263 3.818 1.984-.1.059-2.28 1.275-2.256 3.805" fill-rule="evenodd"/></svg>
