<svg width="14.667" height="10.667" viewBox="0 0 44 32" xmlns="http://www.w3.org/2000/svg"><linearGradient id="prefix__a" x1="9.816" x2="41.246" y1="9.871" y2="41.301" gradientUnits="userSpaceOnUse" gradientTransform="translate(-2 -8)"><stop offset="0" stop-color="#f44f5a"/><stop offset=".443" stop-color="#ee3d4a"/><stop offset="1" stop-color="#e52030"/></linearGradient><path fill="url(#prefix__a)" d="M43.012 26.56c-.439 2.24-2.304 3.947-4.608 4.267C34.783 31.36 28.748 32 21.945 32c-6.693 0-12.728-.64-16.459-1.173-2.304-.32-4.17-2.027-4.608-4.267C.439 24.107 0 20.48 0 16S.439 7.893.878 5.44c.439-2.24 2.304-3.947 4.608-4.267C9.107.64 15.142 0 21.945 0c6.803 0 12.728.64 16.459 1.173 2.304.32 4.17 2.027 4.608 4.267C43.451 7.893 44 11.52 44 16c-.11 4.48-.549 8.107-.988 10.56z"/><path d="M30.352 14.44L18.916 6.816a1.868 1.868 0 00-1.925-.093c-.611.327-.991.96-.991 1.653v15.248a1.874 1.874 0 002.915 1.561l11.436-7.624c.523-.349.835-.932.835-1.56a1.871 1.871 0 00-.834-1.561z" opacity=".05"/><path d="M18.681 7.237l10.79 7.194c.689.495 1.153.938 1.153 1.513s-.224.976-.715 1.334c-.371.27-11.045 7.364-11.045 7.364-.901.604-2.364.476-2.364-1.499V8.744c0-2.005 1.584-1.905 2.181-1.507z" opacity=".07"/><path fill="#fff" d="M17 23.568V8.433a.93.93 0 011.447-.774l11.352 7.568a.93.93 0 010 1.549l-11.352 7.568A.931.931 0 0117 23.568z"/></svg>
